<svg width="288" height="437" viewBox="0 0 288 437" fill="none" xmlns="http://www.w3.org/2000/svg">
<g clip-path="url(#clip0_1318_2064)">
<path d="M152.294 310.721L92.2118 240.28C88.7213 236.188 89.159 229.043 93.191 224.319L133.615 176.961C137.647 172.284 143.752 171.711 147.243 175.792L207.343 246.232C210.833 250.325 210.395 257.469 206.363 262.205L165.946 309.575C161.885 314.299 155.785 314.813 152.294 310.721Z" fill="#E9EAF2"/>
<path d="M288.001 199.615V186.706L281.832 194.774L288.001 199.615Z" fill="#B1B4C4"/>
<path opacity="0.4" d="M75.911 432.182L4.10689 347.991C-1.97567 340.858 -1.21534 328.405 5.8349 320.173L179.263 116.933C186.29 108.747 196.911 107.812 202.994 114.933L274.798 199.124C280.881 206.246 280.115 218.699 273.07 226.931L99.648 430.183C92.6151 438.415 81.9936 439.315 75.911 432.182Z" fill="#D6D8E5"/>
<path d="M85.0068 421.097L13.2026 336.906C7.12005 329.785 7.88613 317.331 14.9306 309.099L188.353 105.836C195.38 97.6503 206.001 96.7032 212.084 103.836L283.888 188.027C289.971 195.16 289.21 207.614 282.16 215.846L108.738 419.109C101.711 427.341 91.0893 428.23 85.0068 421.097Z" fill="#B1B4C4"/>
<path d="M9.0957 324.686V311.262L16.8487 317.203L9.0957 324.686Z" fill="#B1B4C4"/>
<path d="M85.0068 409.743L13.2026 325.552C7.12005 318.419 7.88613 305.965 14.9306 297.733L188.353 94.4697C195.38 86.2845 206.001 85.349 212.084 92.4702L283.888 176.662C289.971 183.783 289.21 196.236 282.16 204.468L108.738 407.744C101.711 415.976 91.0893 416.876 85.0068 409.743Z" fill="#616E84"/>
<path d="M21.8681 342.812C22.2373 342.38 22.2387 340.982 21.8713 339.69C21.5039 338.398 20.9067 337.701 20.5376 338.134C20.1684 338.566 20.167 339.965 20.5344 341.257C20.9019 342.548 21.499 343.245 21.8681 342.812Z" fill="#757B89"/>
<path d="M25.3252 346.876C25.6943 346.443 25.6958 345.045 25.3283 343.753C24.9609 342.461 24.3638 341.765 23.9946 342.197C23.6254 342.63 23.624 344.028 23.9915 345.32C24.3589 346.612 24.956 347.308 25.3252 346.876Z" fill="#757B89"/>
<path d="M28.7802 350.918C29.1494 350.485 29.1508 349.087 28.7834 347.795C28.416 346.503 27.8188 345.806 27.4497 346.239C27.0805 346.672 27.0791 348.07 27.4465 349.362C27.814 350.654 28.4111 351.35 28.7802 350.918Z" fill="#757B89"/>
<path d="M32.2353 354.981C32.6045 354.548 32.6059 353.15 32.2385 351.858C31.871 350.566 31.2739 349.87 30.9048 350.302C30.5356 350.735 30.5342 352.133 30.9016 353.425C31.269 354.717 31.8662 355.414 32.2353 354.981Z" fill="#757B89"/>
<path d="M61.917 389.752C62.2861 389.319 62.2875 387.921 61.9201 386.629C61.5527 385.337 60.9556 384.64 60.5864 385.073C60.2172 385.506 60.2158 386.904 60.5832 388.196C60.9507 389.488 61.5478 390.184 61.917 389.752Z" fill="#757B89"/>
<path d="M65.372 393.815C65.7412 393.382 65.7426 391.984 65.3752 390.692C65.0078 389.4 64.4106 388.704 64.0415 389.137C63.6723 389.569 63.6709 390.967 64.0383 392.259C64.4058 393.551 65.0029 394.248 65.372 393.815Z" fill="#757B89"/>
<path d="M68.8271 397.857C69.1963 397.424 69.1977 396.026 68.8303 394.734C68.4628 393.442 67.8657 392.746 67.4966 393.178C67.1274 393.611 67.126 395.009 67.4934 396.301C67.8608 397.593 68.4579 398.289 68.8271 397.857Z" fill="#757B89"/>
<path d="M72.2822 401.92C72.6514 401.488 72.6528 400.09 72.2853 398.798C71.9179 397.506 71.3208 396.809 70.9516 397.242C70.5825 397.675 70.5811 399.073 70.9485 400.365C71.3159 401.656 71.913 402.353 72.2822 401.92Z" fill="#757B89"/>
<path d="M51.1612 378.534L41.6687 367.402C41.3368 366.921 41.0653 366.288 40.8762 365.555C40.687 364.822 40.5856 364.008 40.5801 363.181C40.5801 361.555 41.0639 360.842 41.6687 361.508L51.1612 372.64C51.4931 373.121 51.7646 373.754 51.9537 374.487C52.1429 375.22 52.2443 376.034 52.2498 376.862C52.2498 378.487 51.766 379.235 51.1612 378.534Z" fill="#757B89"/>
<path d="M266.268 231.526L257.438 241.875C256.862 242.53 256.424 241.875 256.424 240.32C256.43 239.549 256.524 238.793 256.7 238.11C256.876 237.428 257.129 236.839 257.438 236.391L266.268 226.042C266.844 225.387 267.276 226.042 267.276 227.597C267.271 228.367 267.177 229.123 267.002 229.805C266.827 230.487 266.575 231.077 266.268 231.526Z" fill="#757B89"/>
<path d="M252.742 247.417L243.912 257.766C243.336 258.421 242.898 257.766 242.898 256.211C242.905 255.442 243 254.688 243.176 254.007C243.352 253.327 243.604 252.74 243.912 252.293L252.742 241.945C253.318 241.29 253.75 241.945 253.75 243.5C253.745 244.268 253.651 245.022 253.476 245.703C253.301 246.383 253.05 246.97 252.742 247.417Z" fill="#757B89"/>
<path d="M85.0068 407.673L13.2026 323.482C7.12005 316.349 7.88613 303.907 14.9306 295.675L188.353 92.3766C195.38 84.1913 206.001 83.2442 212.084 90.3771L283.888 174.568C289.971 181.701 289.21 194.155 282.16 202.387L108.738 405.685C101.711 413.941 91.0893 414.806 85.0068 407.673Z" fill="#20232D"/>
<path d="M276.185 177.924L248.151 145.066L248.082 145.148C244.77 149.03 239.402 149.03 236.09 145.148C232.778 141.266 232.778 134.975 236.09 131.116L236.159 130.964L208.125 98.1063C203.869 93.1133 196.962 93.1133 192.706 98.1063L23.7706 296.155C19.514 301.148 19.514 309.24 23.7706 314.221L91.825 393.992C96.0874 398.985 102.988 398.985 107.245 393.992L276.185 195.991C280.442 191.009 280.442 182.917 276.185 177.924Z" fill="white"/>
<path opacity="0.5" d="M276.186 195.99L107.251 394.062C103.403 398.564 97.3837 398.997 93.1213 395.349C92.6816 394.969 92.2527 394.54 91.8368 394.062L23.7767 314.221C22.8357 313.196 22.0192 311.758 21.3863 310.011C19.7792 305.393 20.5741 299.908 23.7767 296.155L192.706 98.1531C196.963 93.1718 203.863 93.1718 208.125 98.1531L236.159 131.023C236.134 131.037 236.111 131.061 236.09 131.093C232.778 134.975 232.778 141.266 236.09 145.125C239.402 148.984 244.776 149.007 248.083 145.125L248.146 145.043L276.186 177.901C280.442 182.917 280.442 190.997 276.186 195.99Z" fill="url(#paint0_linear_1318_2064)"/>
<path d="M240.243 144.049C242.022 144.049 243.463 142.358 243.463 140.272C243.463 138.186 242.022 136.495 240.243 136.495C238.465 136.495 237.023 138.186 237.023 140.272C237.023 142.358 238.465 144.049 240.243 144.049Z" fill="#2B303F"/>
<path opacity="0.1" d="M239.294 141.395C239.176 141.321 239.074 141.172 239.001 140.971C238.928 140.771 238.889 140.528 238.889 140.278C238.889 140.028 238.928 139.785 239.001 139.585C239.074 139.384 239.176 139.235 239.294 139.161C239.589 138.855 239.916 138.696 240.247 138.696C240.579 138.696 240.905 138.855 241.2 139.161C241.318 139.235 241.42 139.384 241.493 139.585C241.566 139.785 241.606 140.028 241.606 140.278C241.606 140.528 241.566 140.771 241.493 140.971C241.42 141.172 241.318 141.321 241.2 141.395C240.905 141.701 240.579 141.86 240.247 141.86C239.916 141.86 239.589 141.701 239.294 141.395Z" fill="white"/>
<path d="M251.788 167.482L250.572 166.056L252.606 163.67L253.821 165.109L251.788 167.482Z" fill="#E9EAF2"/>
<path d="M253.416 169.388L252.195 167.962L255.041 164.629L256.262 166.056L253.416 169.388Z" fill="#E9EAF2"/>
<path d="M255.041 171.294L253.82 169.868L257.887 165.109L259.108 166.535L255.041 171.294Z" fill="#E9EAF2"/>
<path d="M120.609 270.299C135.679 287.96 160.137 287.932 175.237 270.235C190.337 252.539 190.361 223.875 175.291 206.213C160.221 188.551 135.763 188.58 120.663 206.277C105.563 223.973 105.539 252.637 120.609 270.299Z" fill="#E9EAF4"/>
<path d="M157.036 210.784L157.451 210.513L158.152 209.691C158.006 209.557 157.875 209.404 157.761 209.233C157.723 209.117 157.961 208.947 157.961 208.947L158.559 208.999L157.778 208.406L157.186 208.559L156.018 208.236L156.16 208.826L156.23 209.23L156.493 209.649L156.697 209.41C156.697 209.41 157.15 209.724 157.101 209.989L156.801 210.235L157.036 210.784ZM139.079 213.139C139.028 212.98 138.949 212.837 138.847 212.717C138.745 212.598 138.622 212.505 138.487 212.445C138.363 212.595 138.194 212.682 138.016 212.689C137.838 212.696 137.665 212.622 137.532 212.482L137.764 213.445L138.488 213.831L139.406 214.369L139.57 215.56C140.555 215.445 140.424 214.559 140.424 214.559L139.079 213.139ZM140.226 238.042L139.824 237.317L139.502 235.615L138.723 234.702L138.399 233.505L138.13 233.19C138.13 233.19 138.562 232.811 138.508 232.684C138.454 232.557 138.215 231.455 138.215 231.455L137.594 231.109L137.918 230.73L137.73 230.193L137.462 229.878L137.758 229.594C137.758 229.594 138.479 229.316 138.428 229.062C138.378 228.808 138.971 226.976 138.971 226.976L138.655 225.656L137.876 224.743L137.848 223.199L137.72 221.777L138.096 220.453L137.961 219.664C137.961 219.664 137.209 219.476 137.128 219.318C137.047 219.159 136.618 218.089 136.618 218.089L136.214 217.239L135.179 216.801L134.456 217.648L134.368 217.121L134.639 216.803L135.338 216.551L135.769 216.299L135.634 215.89L134.936 215.953L133.889 215.29L133.376 215.51L132.649 215.479L132.246 215.702L132.139 214.441C131.835 214.33 131.538 214.193 131.251 214.032C131.149 213.641 131.078 213.239 131.038 212.833L131.307 211.823L132.223 211.13L133.139 210.37L132.952 209.393L132.252 208.573L131.872 207.75L132.529 207.572L133.418 207.224L134.116 207.035C134.116 207.035 134.389 206.893 134.521 206.941C135.044 207.131 134.871 206.53 134.871 206.53C134.871 206.53 134.204 205.622 134.038 205.554C133.872 205.487 133.419 205.333 133.419 205.333L132.8 206.059L132.017 205.709L131.003 204.944L131.006 203.618C131.004 203.429 131.705 202.168 131.705 202.168L132.377 202.197L132.808 202.071L133.482 201.345L134.127 201.406L134.612 201.153L135.305 201.279L136.042 201.317L136.498 201.602L136.875 202.293C137.083 202.113 137.896 203.24 137.896 203.24L138.264 203.628L138.434 203.366C138.731 203.397 139.133 204.186 139.133 204.186L139.916 204.959C140.04 205.185 139.847 205.725 139.847 205.725L139.228 205.694L138.799 206.704L138.717 207.302L138.34 207.555L138.933 208.072L139.472 207.5L140.118 206.806L140.718 205.917L142.246 205.259L145.473 206.076L145.905 205.506L146.698 204.89L146.926 205.442L148.28 205.305L149.354 205.936L150.166 206.117L150.894 205.831L152.05 206.555L153.394 207.059L152.551 207.092L152.12 207.471L152.711 207.91L153.384 208.132L153.866 208.446L154.324 208.729L154.675 208.572L154.433 208.289L154.192 207.688C154.131 207.194 154.054 206.582 154.054 206.582C154.092 206.524 154.141 206.477 154.197 206.443C154.253 206.41 154.314 206.392 154.377 206.389L154.839 206.418C154.839 206.418 155.075 206.391 154.996 206.298C154.917 206.205 154.454 205.357 154.454 205.357L153.548 204.905L153.182 204.476L154.039 204.545L154.549 205.143L155.249 205.646L156.421 207.02L157.203 207.617L157.91 207.866L158.532 208.46L159.3 207.941L159.246 207.12L158.985 206.158L159.513 205.286L159.864 204.181L159.596 203.866L159.218 204.245L158.789 203.742L158.466 203.867L158.197 203.806L157.874 203.555L157.874 202.984L158.546 202.953L158.521 202.103L158.305 201.282L157.828 200.722L157.371 200.437L156.322 200.534L155.622 200.471L155.434 200.945L154.847 201.312L154.747 201.619L154.127 201.272L153.51 200.799L153.349 200.484L152.97 200.548L152.661 201.604L152.163 201.495L151.76 201.023L151.859 200.109L152.027 199.722L152.402 199.849L152.545 199.258L152.008 198.565L151.724 197.135L151.374 196.725L151.58 196.293L151.445 195.885L152.2 195.821L153.007 196.072L154.217 196.733L154.647 196.986L155.507 197.613L156.236 197.858L157.043 197.918L157.607 198.58L158.45 199.169L158.881 199.674L159.563 199.297L158.703 198.289L158.133 198.2L157.568 197.539C157.567 197.26 157.504 196.985 157.385 196.744L157.584 196.511L158.149 196.542L158.822 196.653C159.128 196.609 159.427 196.513 159.71 196.369L160.22 197.597L160.84 198.252L161.27 198.7L161.753 199.33L161.94 199.804C161.644 199.961 161.484 199.396 161.484 199.396L160.409 198.386L159.743 198.156L160.175 197.967L159.689 197.462L158.8 197.237L158.987 197.901L159.874 198.941L160.177 199.719L160.741 200.004L161.01 200.695L161.359 201.486L160.548 200.988L159.752 200.652L159.093 200.156L158.503 199.842L158.306 200.495L159.462 201.787L159.735 203.136L160.327 203.829L160.596 203.577L160.971 203.45L161.296 203.703L161.376 203.102L161.521 202.747L161.842 203.123L161.915 203.671C161.967 204.113 162.783 204.226 162.783 204.226L163.71 204.716L163.125 203.449L163.125 202.819C163.367 202.721 162.643 201.305 162.643 201.305L162.346 199.886L162.356 199.452L161.716 198.702L162.441 199.048L163.569 200.684L164.349 201.284L166.205 202.574L167.441 203.455L168.431 203.985L167.726 202.854C167.726 202.854 166.972 202.351 166.891 202.256C166.81 202.161 166.058 201.407 165.977 201.312L164.094 199.105L163.371 198.571L163.776 199.364L163.273 199.197L162.708 198.536L162.277 198.284L163.03 198.408L162.682 197.747L161.982 197.244L160.879 196.896L161.094 197.401L161.733 197.727L162.028 198.259L161.518 197.915L161.14 197.977L161.328 198.387L160.552 197.605L159.505 195.874L158.377 196L156.631 195.649L156.685 196.216L156.391 196.138L156.021 196.005L155.45 195.035L154.228 194.2L152.015 192.635L140.365 192.387L134.91 193.235L125.296 201.289L128.522 203.176L128.496 204.09L129.033 204.974L129.195 205.795L129.832 206.117L129.831 207.002L130.207 208.514L130.905 209.586L130.339 210.815C130.339 210.815 130.392 212.076 130.26 212.176C130.128 212.275 129.848 213.082 129.963 213.217C130.136 213.645 130.28 214.088 130.394 214.543L130.797 215.139L131.381 214.878L131.785 215.351L131.382 215.823L131.327 216.268L130.761 217.053L130.465 217.781L129.9 217.814L128.927 217.944L127.636 218.189L126.967 219.099L126.348 219.508L126.616 220.14L125.782 220.298C125.65 220.62 125.504 220.933 125.343 221.235C125.195 221.604 125.069 221.984 124.965 222.372L125.018 223.193L124.638 224.018L123.668 227.298L123.77 228.688L124.227 230.359C124.227 230.359 124.171 231.81 124.123 231.931C124.074 232.051 123.181 233.791 123.181 233.791L122.503 234.556L121.984 235.586L121.256 236.567L120.253 237.932L119.66 239.257L118.77 240.866L118.097 240.962L117.719 241.828L117.12 243.036L117.091 243.95L116.419 244.679L115.853 245.528L115.743 249.566L115.713 250.353L116.548 249.375L117.402 249.643L117.897 249.062L117.598 248.145L117.976 247.702L118.483 247.729L119.182 247.536L119.532 247.125C119.833 247.292 119.856 246.746 119.856 246.746L119.486 246.313L119.808 245.872L120.157 246.282L120.087 246.703L120.587 246.785L120.804 246.028C120.992 245.934 121.235 246.533 121.235 246.533L122.256 246.845L122.846 246.782L123.278 246.276L123.248 245.593L123.41 244.77L123.732 245.148C123.732 245.148 123.973 246.003 124.378 245.905C124.782 245.807 125.347 245.715 125.347 245.715L126.342 245.243C126.342 245.243 127.931 244.703 128.067 244.672C128.202 244.64 129.151 243.401 129.151 243.401L130.761 243.594L131.352 244.287L132.645 243.905L133.553 243.724L134.456 242.665L135.452 241.811L136.083 240.577L137.832 240.29L138.939 240.316L139.72 238.898L140.226 238.042ZM167.381 220.258L167.455 220.594L167.914 220.632L168.262 221.04L168.691 221.289L169.034 221.225L169.24 220.823L169.524 220.812C169.762 220.57 169.571 219.97 169.571 219.97L169.373 219.737L168.844 219.782L168.584 219.478L168.171 219.747L167.966 220.075L167.618 219.981L167.381 220.258ZM171.041 219.774L170.644 219.596L170.23 220.081L170.154 220.242C170.089 220.366 170.012 220.48 169.924 220.583L169.985 220.976L170.061 221.353L169.972 221.672C169.972 221.672 169.761 221.848 169.655 221.724L169.332 221.527L169.256 221.832C169.256 221.832 168.983 221.729 168.889 221.796L168.934 222.137L168.627 222.137L168.292 221.744L168.111 221.956L168.814 222.78L169.285 222.909L169.637 223.498C169.637 223.498 170.064 223.822 170.14 223.91L170.156 223.747L170.402 223.713L170.768 223.677L170.641 223.324L170.473 222.95L170.764 222.681L170.714 222.198L170.555 221.564L170.877 221.115L171.213 220.793L170.852 220.37L170.93 220.102L171.342 220.118L171.041 219.774ZM171.725 223.663L171.841 223.528L172.086 223.815L172.322 223.859L172.705 223.41L172.978 223.514L173.222 223.084L173.036 222.629L172.472 222.289L172.248 222.552L171.957 222.284L171.69 222.453L171.785 222.764L171.327 222.621L171.119 222.682L171.142 223.23L171.725 223.663ZM177.843 252.589L178.311 254.408L179.035 254.781L178.889 255.763L179.61 257.087L179.812 257.797L183.92 255.624L185.186 253.384L188.415 237.764L188.024 234.689L186.205 232.557L185.28 231.743L184.671 231.983L184.401 231.289L184.559 230.627L184.153 230.152L184.152 230.575L184.008 231.087L183.371 230.341L183.011 230.762L182.624 230.151L182.39 229.779L182.157 229.689L182.213 229.961L182.368 230.249L182.12 230.116L181.976 229.718L181.776 229.247L181.887 228.906L181.846 228.434L181.624 228.094L181.655 227.635L182.014 228.136L182.205 228.724L182.459 229.102C182.459 229.102 182.684 229.261 182.672 229.322C182.765 229.535 182.877 229.737 183.005 229.924L183.42 229.987L183.32 229.175L182.824 228.107C182.824 228.107 181.806 226.533 181.746 226.471C181.619 226.223 181.503 225.966 181.398 225.704L181.088 225.103L180.187 224.047L178.562 222.739L177.322 222.417L175.605 222.315C175.605 222.315 174.714 221.534 174.658 221.493C174.424 221.469 174.188 221.463 173.953 221.475L173.741 222.146L173.515 222.305L173.538 222.565L173.448 222.883L173.39 223.238L173.913 223.694L174.682 223.943L174.86 224.622L174.648 225.551L174.4 225.968L174.679 226.452L175.114 226.492L175.416 226.714L175.952 226.398L176.286 226.057L176.721 226.333L176.927 226.092L176.893 225.844L176.837 225.542L177.143 225.053L177.976 225.272C177.976 225.272 178.493 225.301 178.536 225.25C178.579 225.199 178.861 225.182 178.861 225.182C178.861 225.182 179.061 225.446 179.117 225.537C179.173 225.628 179.405 226.189 179.405 226.189L179.439 226.466L178.826 226.217L178.337 226.219L178.033 226.152L177.811 226.806L178.021 227.578L178.49 227.941L179.14 228.63C179.14 228.63 179.706 229.628 179.715 229.693C179.724 229.759 179.411 229.571 179.411 229.571L179.058 229.339L178.802 229.276L178.672 228.81C178.64 228.599 178.558 228.402 178.434 228.244C178.304 228.141 178.155 228.074 177.999 228.048L177.91 228.545L177.986 229.002C177.986 229.002 177.598 229.224 177.542 229.133C177.486 229.042 177.573 228.674 177.573 228.674L177.416 228.253L177.149 228.178L176.925 228.491L176.506 228.813L176.048 228.699L175.688 228.647L175.579 228.15L175.133 227.865L174.565 227.119L174.309 227.106L174.185 226.753C174.185 226.753 173.64 226.166 173.595 226.138C173.515 225.951 173.452 225.754 173.406 225.552L173.574 225.042L173.941 225.002L173.953 224.805L174.053 224.532L174.3 224.504L174.176 224.257L173.62 224.257L173.338 224.558C173.338 224.558 173.228 225.03 173.206 225.081C173.136 225.182 173.061 225.278 172.982 225.369L172.592 225.175L172.202 224.925L172.146 225.122L172.402 225.554L172.121 225.647L171.929 225.448L171.617 225.607L171.438 225.686L171.26 225.32L171.428 225.148L171.639 224.926L171.641 224.691L171.338 224.704L170.982 224.758L170.555 224.413L170.253 224.373L169.896 224.53L169.506 224.362L169.161 224.271L169.003 223.696L168.882 223.736L168.783 224.009L168.615 224.024L168.225 223.487L168.023 223.174L167.676 223.501L168.023 224.063L168.042 224.509C168.042 224.509 168.009 224.916 168.042 224.954C168.074 224.992 168.244 225.321 168.244 225.321L167.662 225.792L167.005 226.093L166.179 225.1L165.288 224.005L164.887 223.794L164.541 223.989L164.351 224.397L163.684 224.798L163.348 225.035C163.257 225.143 163.176 225.262 163.106 225.391C163.097 225.456 162.996 225.888 162.996 225.888L162.515 226.214L162.726 226.673L163.195 227.299L163.315 227.783L163.485 228.058L163.963 228.28L164.531 228.789L165.392 228.879L165.793 228.227L166.443 228.141L167.447 228.402L167.804 228.609L168.173 228.101L168.746 228.274L168.984 228.841L169.363 228.971L170.348 229.584L170.401 231.272L170.722 233.296C170.722 233.296 170.511 234.043 170.489 234.094C170.345 234.166 170.195 234.219 170.041 234.251L169.466 233.577L169.201 233.38C169.201 233.38 169.101 233.653 169.144 233.704C169.188 233.755 169.434 234.543 169.434 234.543L169.467 234.844L169.568 234.907L169.768 234.647L170.014 234.464L170.147 234.672C170.279 234.665 170.411 234.643 170.539 234.606C170.685 234.544 170.833 234.492 170.983 234.449L171.095 234.03L171.321 233.926L171.478 234.164L171.267 234.463L171.333 234.541L171.601 234.177L171.532 233.834L171.452 233.363L171.528 232.88L171.317 232.447L171.218 231.781L171.408 231.376L171.252 230.829L171.416 230.446L171.763 230.251L171.997 230.445L171.762 230.746L171.896 231.059L172.109 231.126L171.947 231.784L172.126 232.539L172.269 233.131L172.446 233.393L172.418 234.208L172.03 234.849L172.005 236.341L171.636 236.98L171.769 237.868L171.993 237.893L172.215 237.476L172.594 237.607L172.719 237.279L172.557 236.89L172.656 236.537L173.027 236.208L173.049 235.844L173.16 236.026L173.137 236.286L173.505 236.223L173.761 236.548L173.918 236.994L173.843 237.551L173.731 238.152C173.731 238.152 173.52 238.086 173.475 238.114C173.415 238.246 173.37 238.387 173.341 238.533L173.364 239.106L173.282 239.671L173.693 240.128L173.558 240.392L173.815 240.77L174.16 241.018L174.42 240.899L174.374 241.239L174.585 241.749L174.885 242.049L175.377 242.021L175.498 242.374L175.556 242.674L175.276 242.872L174.956 243.572L174.289 243.88L173.682 244.591L172.465 243.165L171.823 242.835L171.448 241.52L170.9 241.013L170.365 239.674L169.701 238.897L169.319 238.872L169.116 239.38L168.596 239.38L168.336 238.126L167.758 237.585L167.903 236.942L167.354 235.756L167.075 234.815L166.864 234.089L167.933 233.987L168.28 233.242L168.138 232.597L165.853 230.465L164.727 229.891L164.177 229.314L163.434 228.917L162.915 227.97L161.96 228.07L161.093 227.868L159.64 228.473L159.329 229.125L158.143 229.094L157.306 228.655L156.475 228.953C156.475 228.953 154.42 229.869 154.247 229.937C154.074 230.005 153.407 230.921 153.407 230.921L152.828 232.208L150.804 233.16L150.339 234.246L150.02 235.363L149.672 237.737L149.05 238.407L149.461 241.975L151.084 242.785L151.845 244.506L153.981 245.249C153.981 245.249 154.445 245.792 154.329 246.266C154.213 246.74 154.068 247.112 154.587 247.721C155.107 248.33 154.788 249.316 154.788 249.316L153.893 249.824L153.661 250.366L152.888 250.731L152.302 252.686L151.837 254.178L151.373 255.605L150.39 256.96L149.695 257.572L147.871 258.149L146.279 260.489L146.105 261.234L145.729 261.471L145.7 262.457L144.947 263.947L143.761 264.797L143.384 266.049C143.384 266.049 142.919 267.338 142.861 267.474C142.804 267.609 142.716 268.185 142.543 268.32C142.37 268.456 141.905 268.797 141.905 268.797L141.443 269.61L142.916 271.337L143.841 271.879L147.282 271.841C147.622 271.808 147.96 271.75 148.295 271.669C148.41 271.601 149.711 270.618 149.711 270.618L151.418 271.462L152.363 270.355L152.856 269.167L154.098 269.2L156.789 270.045L157.687 269.331L158.987 267.806L159.653 266.278L160.347 265.668L160.313 265.014L161.672 264.71L162.946 263.691L164.245 264.062L164.919 263.695L167.922 263.628L169.842 262.465L171.079 262.03L171.948 261.011L171.689 260.368L170.849 260.266L170.157 259.59L169.313 259.024L169.111 257.97L169.603 257.53L169.691 255.803L169.403 254.513L170.126 252.922L170.095 251.369L170.847 250.353L171.077 248.929L171.83 246.626L171.83 245.135L172.294 244.455L172.438 244.899L172.495 245.508L172.177 246.152C172.408 246.422 172.928 246.016 172.928 246.016L172.697 246.761L172.356 247.633L172.037 249.499L172.326 249.972L171.889 251.43L171.485 251.837L171.453 254.583L170.557 256.107L170.266 256.922L170.267 257.804L172.462 259.293L173.07 259.324L174.052 259.932L174.399 259.525L175.844 259.864L176.877 259.499L177.428 259.344L178.123 259.21L178.304 257.877L178.203 256.432L178.532 255.548L178.229 255.328L177.528 255.727L176.684 255.161L176.569 254.484L176.945 253.773L176.656 253.57L176.946 252.415L176.81 251.831L177.071 250.578L177.679 250.541L177.843 252.589ZM168.579 231.746L168.917 231.494L169.315 231.028C169.308 230.889 169.268 230.756 169.199 230.643C169.14 230.574 169.061 230.532 168.977 230.527L168.535 231.046C168.459 231.171 168.365 231.281 168.258 231.369L168.579 231.746ZM169.774 230.346C169.805 230.317 169.831 230.279 169.848 230.236C169.865 230.193 169.873 230.146 169.871 230.099C169.87 230.051 169.859 230.005 169.839 229.964C169.819 229.923 169.791 229.888 169.758 229.862L169.346 230.095L169.223 230.488L169.438 230.74L169.774 230.346ZM169.796 211.848L170.878 213.116L172.319 212.81L173.677 214.401L174.437 214.022L175.715 214.482C176.455 214.54 176.685 213.345 176.685 213.345L175.196 211.1L173.288 209.371L171.287 205.951L169.08 204.982C169.08 204.982 167.398 204.396 167.299 204.166C167.03 203.791 166.733 203.444 166.414 203.128C166.414 203.128 166.463 204.338 166.658 204.685C166.81 204.927 166.992 205.141 167.199 205.319C167.199 205.319 166.718 205.882 166.707 206.128C166.656 206.995 165.657 206.514 165.657 206.514L165.19 207.06C165.19 207.06 164.388 208.182 164.574 208.307C164.76 208.431 164.492 209.308 164.492 209.308L164.451 210.416L165.279 211.386L167.544 211.153L169.004 211.826L169.796 211.848ZM161.571 271.3L161.799 270.72L161.494 270.718L161.053 270.922L160.568 270.777L160.032 271.092L159.363 271.427L158.389 270.824L157.51 271.093L156.516 272.08L155.794 272.301L155.164 272.325L154.736 273.093L154.697 273.633L154.201 273.72L154.231 274.179L154.936 275.006L155.929 274.78C155.929 274.78 156.942 274.354 157 274.286C157.058 274.218 157.842 273.659 157.842 273.659L159.116 273.459L160.117 272.285L160.5 272.733L161.094 271.77L161.571 271.3ZM137.714 208.973L137.163 207.657C137.163 207.657 136.898 207.423 136.56 207.18C136.32 206.993 136.063 206.834 135.795 206.707L136.577 208.572L137.057 209.134L137.167 210.881L137.708 211.515C137.708 211.515 138.347 211.802 138.544 211.225L138.105 210.129L137.714 208.973Z" fill="#199A8E"/>
<path opacity="0.05" d="M129.339 266.284C125.091 261.299 121.897 255.218 120.011 248.525C118.126 241.833 117.6 234.713 118.476 227.734C119.353 220.755 121.607 214.109 125.06 208.326C128.512 202.542 133.068 197.78 138.364 194.42C133.066 196.022 128.116 198.924 123.842 202.933C119.568 206.943 116.067 211.969 113.571 217.678C111.076 223.387 109.642 229.65 109.364 236.052C109.087 242.455 109.973 248.85 111.963 254.816C113.953 260.782 117.002 266.182 120.908 270.659C124.815 275.137 129.489 278.589 134.623 280.788C139.757 282.986 145.233 283.882 150.688 283.415C156.144 282.947 161.455 281.128 166.27 278.077C159.764 280.048 152.936 279.997 146.459 277.928C139.982 275.86 134.082 271.846 129.339 266.284Z" fill="black"/>
<path d="M256.667 173.2L255.451 171.774L261.142 165.109L262.363 166.535L256.667 173.2Z" fill="#E9EAF2"/>
<path d="M261.954 179.398L260.059 177.176L263.849 172.733L265.749 174.954L261.954 179.398Z" fill="#E9EAF2"/>
<path d="M264.481 182.368L262.586 180.146L266.382 175.691L268.277 177.913L264.481 182.368Z" fill="#E9EAF2"/>
<path d="M267.01 185.326L265.115 183.105L268.911 178.661L270.806 180.883L267.01 185.326Z" fill="#E9EAF2"/>
<path d="M257.726 197.066L250.532 205.556L181.619 124.79L188.819 116.301L257.726 197.066Z" fill="#E9EAF2"/>
<path d="M147.749 326.815L140.549 335.304L71.6426 254.539L78.8368 246.049L147.749 326.815Z" fill="#E9EAF2"/>
<path d="M134.98 341.875L127.78 350.376L58.8672 269.611L66.0672 261.11L134.98 341.875Z" fill="#E9EAF2"/>
<path d="M122.21 356.948L115.01 365.437L46.0977 284.672L53.2977 276.171L122.21 356.948Z" fill="#E9EAF2"/>
<path d="M109.441 372.009L102.241 380.498L33.3281 299.733L40.5281 291.244L109.441 372.009Z" fill="#E9EAF2"/>
<path d="M232.191 227.2L224.985 235.689L156.078 154.924L163.278 146.423L232.191 227.2Z" fill="#E9EAF2"/>
<path d="M244.962 212.127L237.756 220.628L168.85 139.863L176.05 131.362L244.962 212.127Z" fill="#E9EAF2"/>
<path d="M159.96 78.9645L162.794 88.9271L158.076 94.3879L162.759 110.852L159.908 114.149L155.225 97.6737L150.508 103.123L147.68 93.1835L152.397 87.7227L147.708 71.247L150.56 67.9495L155.243 84.4252L159.96 78.9645Z" fill="white"/>
<path d="M191.233 71.399L131.807 1.74236C130.2 -0.140253 128.731 -0.444278 127.614 0.573035C127.459 0.715039 127.311 0.883237 127.17 1.07584L120.961 8.05671L125.477 20.9193V111.998C125.477 120.183 128.311 130.146 131.813 134.215L155.095 161.495L157.929 176.334L154.945 202.609L161.517 195.195L167.957 176.568L188.117 200.212L188.825 212.478L195.334 205.111C196.688 203.942 197.552 200.96 197.552 196.447V93.6396C197.569 85.4543 194.735 75.4917 191.233 71.399Z" fill="#ADB3BC"/>
<path d="M184.666 78.8125L125.234 9.15578C121.744 5.06315 118.898 8.38403 118.898 16.5693V119.47C118.898 127.655 121.732 137.618 125.234 141.687L148.516 168.967L154.945 202.609L161.378 184.017L184.66 211.309C188.157 215.401 190.996 212.08 190.996 203.895V101.053C190.991 92.8677 188.162 82.9051 184.666 78.8125Z" fill="#D1D5DB"/>
<path d="M171.194 165.494L171.182 174.557L137.02 134.507L137.031 125.457L171.194 165.494Z" fill="#F0F3F7"/>
<path d="M173.071 151.813L173.059 160.876L135.182 116.488L135.193 107.426L173.071 151.813Z" fill="#F0F3F7"/>
</g>
<defs>
<linearGradient id="paint0_linear_1318_2064" x1="149.978" y1="397.734" x2="149.978" y2="94.4113" gradientUnits="userSpaceOnUse">
<stop offset="0.21" stop-color="white" stop-opacity="0"/>
<stop offset="1" stop-color="white" stop-opacity="0.2"/>
</linearGradient>
<clipPath id="clip0_1318_2064">
<rect width="288" height="437" fill="white"/>
</clipPath>
</defs>
</svg>
